# Blender v2.81 (sub 8) OBJ File: 'horse2.blend'
# www.blender.org
o Cube
v 0.910258 0.710986 -0.865658
v 0.800000 -1.000000 -1.000000
v 0.910258 0.710986 0.865658
v 0.800000 -1.000000 1.000000
v -0.689742 0.710986 -0.811918
v -0.800000 -1.000000 -1.000000
v -0.689742 0.710986 0.811918
v -0.800000 -1.000000 1.000000
v 1.452844 0.807383 -0.758575
v 1.811341 -0.294801 -1.000000
v 1.452844 0.807383 0.758575
v 1.811341 -0.294801 1.000000
v -1.700000 -1.000000 -0.807392
v -1.700000 -1.000000 0.807392
v -1.555857 0.332958 0.651597
v -1.555857 0.332958 -0.651597
v 1.811341 -0.294801 0.000000
v 0.800000 -1.000000 0.000000
v -0.800000 -1.000000 0.000000
v -1.900000 -0.700000 0.000000
v -1.186741 -2.000000 0.356630
v -1.186741 -2.000000 0.643370
v 1.186741 -2.000000 0.643370
v 1.473482 -2.000000 0.643370
v -1.473482 -2.000000 0.356630
v -1.473482 -2.000000 0.643370
v 1.473482 -2.000000 0.356630
v 1.186741 -2.000000 0.356630
v 1.192815 -2.000000 -0.365000
v 1.192815 -2.000000 -0.635000
v 1.462815 -2.000000 -0.365000
v 1.462815 -2.000000 -0.635000
v -1.467823 -2.000000 -0.635000
v -1.197823 -2.000000 -0.635000
v -1.197823 -2.000000 -0.365000
v -1.467823 -2.000000 -0.365000
v 1.720097 0.968552 -0.693620
v 2.706562 0.546351 -0.693620
v 1.720097 0.968552 0.693620
v 2.706562 0.546351 0.693620
v 2.725463 0.432943 0.000000
v 1.999484 1.719180 -0.468587
v 2.939955 1.721316 -0.535547
v 1.999483 1.719180 0.468587
v 2.939955 1.721316 0.535547
v 2.861199 1.886703 0.000000
v 3.513825 0.427614 0.000000
v 3.538713 0.480115 -0.405413
v 3.538713 0.480115 0.405413
v 3.815893 1.064833 0.000000
v 3.791005 1.012332 -0.374572
v 3.791005 1.012332 0.374572
v 0.800000 0.900000 0.000000
v -0.800000 0.900000 0.000000
v 1.342586 0.996397 0.000000
v -1.666115 0.521972 -0.000000
v 1.641341 1.133939 0.000000
v 1.952230 1.805811 0.000000
v -1.193680 0.616479 -0.731757
v -1.303938 0.805493 -0.000000
v -1.193680 0.616479 0.731757
v -2.236624 1.474629 0.000000
v -2.135282 1.553961 0.000000
v -2.455030 1.458103 0.000000
v -2.090138 1.743749 0.000000
v -2.606980 1.869958 0.000000
v -2.489479 1.961941 0.000000
v 1.989852 1.736838 -0.373075
v 2.924370 1.754044 -0.429567
v 1.988103 1.740042 0.355741
v 2.922332 1.758323 0.415712
v 2.454797 2.391414 -0.820799
v 2.106159 2.384244 -0.775030
v 2.105510 2.385432 0.766588
v 2.454041 2.393001 0.813646
vt 0.146196 0.471360
vt 0.066731 0.657998
vt 0.061472 0.471360
vt 0.203528 0.585418
vt 0.578527 0.717081
vt 0.324272 0.835818
vt 0.528436 0.413089
vt 0.368074 0.435900
vt 0.383469 0.403974
vt 0.624956 0.352004
vt 0.941699 0.196739
vt 0.941699 0.352004
vt 0.458093 0.466745
vt 0.245272 0.411085
vt 0.460472 0.358922
vt 0.882599 0.288738
vt 0.642472 0.176603
vt 0.159344 0.228147
vt 0.091458 0.398821
vt 0.061472 0.228147
vt 0.768857 0.525165
vt 0.567861 0.577735
vt 0.383641 0.960813
vt 0.217884 0.943073
vt 0.071952 0.398821
vt 0.146196 0.398821
vt 0.635404 0.497121
vt 0.738636 0.254679
vt 0.738636 0.497121
vt 0.146196 0.657998
vt 0.217815 0.702601
vt 0.146196 0.702601
vt 0.885527 0.165346
vt 0.884063 0.227042
vt 0.581624 0.847730
vt 0.580076 0.782406
vt 0.352021 0.731277
vt 0.452624 0.564274
vt 0.510451 0.731277
vt 0.096376 0.056537
vt 0.124440 0.056537
vt 0.624956 0.196739
vt 0.941699 0.041475
vt 0.624956 0.352004
vt 0.670368 0.396524
vt 0.624956 0.396524
vt 0.715779 0.352004
vt 0.670368 0.396524
vt 0.670368 0.352004
vt 0.790794 0.623379
vt 0.685413 0.780405
vt 0.632414 0.623379
vt 0.143063 0.849947
vt 0.206032 0.747205
vt 0.240936 0.849947
vt 0.869615 0.254679
vt 0.795137 0.092375
vt 0.840566 0.092375
vt 0.045191 0.981698
vt 0.108159 0.880264
vt 0.143063 0.981698
vt 0.033132 0.559933
vt 0.521885 0.479756
vt 0.656766 0.615316
vt 0.612085 0.623281
vt 0.801300 0.393925
vt 0.758539 0.352004
vt 0.801300 0.352004
vt 0.758539 0.352004
vt 0.715779 0.393925
vt 0.715779 0.352004
vt 0.257217 0.228147
vt 0.195068 0.056127
vt 0.221494 0.056127
vt 0.340707 0.765159
vt 0.236262 0.608090
vt 0.279025 0.608090
vt 0.143063 0.951498
vt 0.205213 0.849947
vt 0.240936 0.951498
vt 0.607658 0.254679
vt 0.680809 0.092197
vt 0.698544 0.058550
vt 0.542585 0.074001
vt 0.557980 0.042075
vt 0.656766 0.471611
vt 0.790794 0.336442
vt 0.790794 0.623379
vt 0.207830 0.334359
vt 0.267174 0.328715
vt 0.201313 0.443435
vt 0.227231 0.398821
vt 0.159344 0.398821
vt 0.503961 0.305048
vt 0.521885 0.446495
vt 0.459548 0.554189
vt 0.459548 0.446495
vt 0.812177 0.677873
vt 0.679395 0.790083
vt 0.341412 0.608090
vt 0.343625 0.443435
vt 0.352021 0.443435
vt 0.363366 0.186237
vt 0.581624 0.225322
vt 0.143063 0.813735
vt 0.061472 0.869301
vt 0.063766 0.813734
vt 0.352021 0.519249
vt 0.352021 0.510489
vt 0.352021 0.501728
vt 0.885527 0.753164
vt 0.831330 0.883553
vt 0.632414 0.711979
vt 0.536372 0.779863
vt 0.521298 0.722895
vt 0.524534 0.664129
vt 0.614104 0.623379
vt 0.363001 0.035901
vt 0.524240 0.087264
vt 0.672007 0.944739
vt 0.623337 0.884897
vt 0.061472 0.758168
vt 0.143063 0.747205
vt 0.326517 0.334359
vt 0.335230 0.443435
vt 0.352021 0.388569
vt 0.352021 0.373740
vt 0.459548 0.338800
vt 0.521885 0.328715
vt 0.074577 0.702601
vt 0.220440 0.398821
vt 0.230920 0.471360
vt 0.225661 0.657998
vt 0.267174 0.443435
vt 0.210814 0.608090
vt 0.082423 0.747205
vt 0.209970 0.747205
vt 0.146196 0.747205
vt 0.326280 0.608090
vt 0.191820 0.443435
vt 0.192936 0.608090
vt 0.182327 0.443435
vt 0.841869 0.497121
vt 0.771105 0.626994
vt 0.235196 0.978973
vt 0.409848 0.564274
vt 0.624956 0.041475
vt 0.670368 0.352004
vt 0.715779 0.396524
vt 0.730827 0.780405
vt 0.177968 0.747205
vt 0.080095 0.880264
vt 0.050443 0.595833
vt 0.656766 0.328715
vt 0.758539 0.393925
vt 0.758539 0.393925
vt 0.182327 0.765159
vt 0.178787 0.849947
vt 0.638033 0.092197
vt 0.748765 0.328715
vt 0.521885 0.564274
vt 0.333846 0.608090
vt 0.143063 0.880264
vt 0.352021 0.446495
vt 0.632414 0.802378
vt 0.304009 0.085841
vt 0.352021 0.381155
vt 0.267174 0.608090
vt 0.201875 0.608090
vn -0.0072 0.9768 0.2142
vn 0.0000 0.1093 0.9940
vn 0.0000 -0.3429 -0.9394
vn 0.0000 -1.0000 0.0000
vn 0.1432 0.2560 0.9560
vn 0.0000 0.1093 -0.9940
vn 0.6848 -0.7288 0.0000
vn -0.0570 0.0818 -0.9950
vn -0.2021 -0.2587 0.9446
vn -0.1688 0.9504 0.2613
vn -0.9591 0.1836 -0.2155
vn -0.1774 0.9461 -0.2711
vn -0.2818 0.0899 -0.9553
vn -0.2818 0.0899 0.9553
vn 0.9292 -0.3696 0.0000
vn 0.9809 -0.1944 0.0000
vn -0.0784 -0.2876 -0.9545
vn 0.9327 -0.3607 0.0000
vn -0.9753 -0.2209 0.0000
vn -0.9327 -0.3607 0.0000
vn 0.1623 -0.2327 0.9589
vn 0.0000 -0.3359 -0.9419
vn 0.9797 -0.2003 0.0000
vn 0.0000 -0.3429 0.9394
vn -0.9308 -0.3656 0.0000
vn -0.9511 -0.2792 -0.1319
vn 0.0000 -0.1699 -0.9855
vn 0.1665 -0.2388 0.9567
vn 0.6484 0.7468 0.1478
vn 0.6164 -0.7743 -0.1434
vn 0.0896 0.2408 0.9664
vn -0.4043 0.8783 0.2553
vn 0.1033 0.2415 -0.9649
vn -0.0632 -0.4293 -0.9010
vn 0.1065 0.2489 0.9626
vn -0.0067 -0.9916 -0.1288
vn -0.9875 0.1040 0.1188
vn -0.0706 0.1468 -0.9867
vn 0.9036 -0.4283 -0.0000
vn 0.2494 0.0803 0.9651
vn 0.3189 -0.0965 -0.9429
vn -0.0229 -0.9867 0.1607
vn 0.6492 0.7484 -0.1357
vn -0.8948 0.4141 -0.1668
vn -0.4460 0.8511 -0.2769
vn -0.2167 0.9439 0.2492
vn -0.1268 0.9656 -0.2270
vn -0.0072 0.9768 -0.2142
vn -0.0379 0.9532 0.2999
vn -0.6293 0.7242 0.2819
vn -0.5849 0.7472 -0.3157
vn -0.0357 0.9534 -0.2997
vn -0.0635 -0.4206 0.9050
vn 0.0406 0.5443 0.8379
vn 0.0426 0.5531 -0.8320
vn -0.9591 0.1836 0.2155
vn 0.0000 0.9740 0.2267
vn -0.0335 0.0804 0.9962
vn 0.1665 -0.2388 -0.9567
vn -0.0570 0.0818 0.9950
vn -0.0335 0.0804 -0.9962
vn 0.6164 -0.7743 0.1434
vn 0.1432 0.2560 -0.9560
vn 0.0000 -0.1619 0.9868
vn -0.1268 0.9656 0.2270
vn -0.9487 0.1360 -0.2855
vn -0.2167 0.9439 -0.2492
vn -0.1777 0.1188 -0.9769
vn -0.2073 0.1357 -0.9688
vn -0.2073 0.1357 0.9688
vn -0.1777 0.1188 0.9769
vn -0.9519 -0.2757 0.1333
vn 0.0000 -0.3359 0.9419
vn 0.1623 -0.2327 -0.9589
vn -0.0802 -0.2941 0.9524
vn -0.9741 -0.2262 0.0000
vn -0.2018 -0.2640 -0.9432
vn 0.6463 0.7507 0.1368
vn 0.8197 0.5700 0.0555
vn 0.6492 0.7484 0.1357
vn 0.1033 0.2415 0.9649
vn -0.4460 0.8511 0.2769
vn 0.0896 0.2408 -0.9664
vn -0.1111 -0.4011 -0.9093
vn -0.0706 0.1468 0.9867
vn -0.0229 -0.9867 -0.1607
vn -0.8948 0.4141 0.1668
vn -0.8984 0.3931 0.1957
vn 0.1065 0.2489 -0.9626
vn 0.9036 -0.4284 -0.0000
vn 0.3189 -0.0965 0.9429
vn 0.2494 0.0803 -0.9651
vn -0.0067 -0.9916 0.1288
vn 0.8198 0.5699 -0.0555
vn 0.6463 0.7507 -0.1368
vn 0.6485 0.7467 -0.1478
vn -0.8984 0.3931 -0.1957
vn -0.9875 0.1037 -0.1187
vn -0.4043 0.8783 -0.2553
vn -0.1774 0.9461 0.2711
vn -0.1688 0.9504 -0.2613
vn 0.0000 0.9740 -0.2267
vn -0.0870 0.9780 0.1896
vn -0.5849 0.7472 0.3157
vn -0.6293 0.7242 -0.2819
vn -0.0870 0.9780 -0.1896
vn -0.1149 -0.3903 0.9135
vn 0.1015 0.5115 0.8533
vn 0.1031 0.5207 -0.8475
vn -0.9487 0.1360 0.2855
s off
f 53/1/1 7/2/1 3/3/1
f 4/4/2 7/5/2 8/6/2
f 2/7/3 32/8/3 30/9/3
f 2/10/4 19/11/4 6/12/4
f 3/13/5 12/14/5 11/15/5
f 5/16/6 2/7/6 6/17/6
f 17/18/7 40/19/7 12/20/7
f 1/21/8 10/22/8 2/7/8
f 14/23/9 22/24/9 8/6/9
f 53/1/10 11/25/10 55/26/10
f 16/27/11 20/28/11 56/29/11
f 54/30/12 59/31/12 60/32/12
f 6/17/13 16/33/13 59/34/13
f 15/35/14 8/6/14 61/36/14
f 19/37/15 34/38/15 6/39/15
f 17/18/16 24/40/16 27/41/16
f 18/42/4 8/43/4 19/11/4
f 28/44/4 24/45/4 23/46/4
f 21/47/4 26/48/4 25/49/4
f 19/50/17 25/51/17 20/52/17
f 8/53/18 21/54/18 19/55/18
f 14/56/19 25/57/19 26/58/19
f 18/59/20 23/60/20 4/61/20
f 4/4/21 24/62/21 12/14/21
f 18/63/22 27/64/22 28/65/22
f 35/66/4 33/67/4 34/68/4
f 29/69/4 32/70/4 31/71/4
f 10/72/23 31/73/23 32/74/23
f 19/75/24 36/76/24 35/77/24
f 2/78/25 29/79/25 18/80/25
f 13/81/26 36/82/26 20/28/26
f 13/83/27 34/84/27 33/85/27
f 18/86/28 31/87/28 17/88/28
f 52/89/29 50/90/29 71/91/29
f 17/18/30 38/92/30 41/93/30
f 12/14/31 39/94/31 11/15/31
f 55/95/32 39/96/32 57/97/32
f 10/22/33 37/98/33 38/99/33
f 42/100/34 72/101/34 43/102/34
f 40/103/35 44/104/35 39/94/35
f 41/105/36 48/106/36 47/107/36
f 44/108/37 74/109/37 70/110/37
f 38/99/38 42/111/38 43/112/38
f 47/113/39 51/114/39 50/115/39
f 47/113/39 52/116/39 49/117/39
f 40/103/40 52/118/40 45/119/40
f 38/99/41 51/120/41 48/121/41
f 41/105/42 49/122/42 40/123/42
f 51/124/43 43/102/43 69/125/43
f 57/97/44 68/126/44 42/127/44
f 55/95/45 37/128/45 9/129/45
f 54/30/46 61/130/46 7/2/46
f 53/1/47 9/131/47 1/132/47
f 5/133/48 53/1/48 1/132/48
f 46/134/49 70/135/49 71/91/49
f 60/32/50 15/136/50 61/130/50
f 60/32/51 16/137/51 56/138/51
f 68/139/52 46/134/52 69/125/52
f 75/140/53 44/141/53 45/142/53
f 72/101/54 68/139/54 69/125/54
f 70/135/55 75/140/55 71/91/55
f 20/28/56 15/143/56 56/29/56
f 53/1/57 54/30/57 7/2/57
f 4/4/58 3/13/58 7/5/58
f 2/7/59 10/22/59 32/8/59
f 2/10/4 18/42/4 19/11/4
f 3/13/60 4/4/60 12/14/60
f 5/16/61 1/21/61 2/7/61
f 17/18/62 41/93/62 40/19/62
f 1/21/63 9/144/63 10/22/63
f 14/23/64 26/145/64 22/24/64
f 53/1/65 3/3/65 11/25/65
f 16/27/66 13/81/66 20/28/66
f 54/30/67 5/133/67 59/31/67
f 59/34/68 5/16/68 6/17/68
f 6/17/69 13/83/69 16/33/69
f 14/23/70 8/6/70 15/35/70
f 8/6/71 7/5/71 61/36/71
f 19/37/15 35/146/15 34/38/15
f 17/18/16 12/20/16 24/40/16
f 18/42/4 4/147/4 8/43/4
f 28/44/4 27/148/4 24/45/4
f 21/47/4 22/149/4 26/48/4
f 19/50/22 21/150/22 25/51/22
f 8/53/18 22/151/18 21/54/18
f 14/56/72 20/28/72 25/57/72
f 18/59/20 28/152/20 23/60/20
f 4/4/73 23/153/73 24/62/73
f 18/63/74 17/154/74 27/64/74
f 35/66/4 36/155/4 33/67/4
f 29/69/4 30/156/4 32/70/4
f 10/72/23 17/18/23 31/73/23
f 19/75/75 20/157/75 36/76/75
f 2/78/25 30/158/25 29/79/25
f 13/81/76 33/159/76 36/82/76
f 13/83/77 6/17/77 34/84/77
f 18/86/24 29/160/24 31/87/24
f 50/90/78 46/134/78 71/91/78
f 71/91/79 75/140/79 45/142/79
f 45/142/80 52/89/80 71/91/80
f 17/18/7 10/72/7 38/92/7
f 12/14/81 40/103/81 39/94/81
f 55/95/82 11/161/82 39/96/82
f 10/22/83 9/144/83 37/98/83
f 42/100/84 73/162/84 72/101/84
f 40/103/85 45/119/85 44/104/85
f 41/105/86 38/163/86 48/106/86
f 58/164/87 57/97/87 70/110/87
f 57/97/88 39/96/88 44/108/88
f 70/110/87 57/97/87 44/108/87
f 38/99/89 37/98/89 42/111/89
f 47/113/90 48/165/90 51/114/90
f 47/113/39 50/115/39 52/116/39
f 40/103/91 49/166/91 52/118/91
f 38/99/92 43/112/92 51/120/92
f 41/105/93 47/107/93 49/122/93
f 43/102/94 72/101/94 69/125/94
f 69/125/95 46/134/95 50/90/95
f 50/90/96 51/124/96 69/125/96
f 42/127/97 37/128/97 57/97/97
f 57/97/44 58/164/44 68/126/44
f 68/126/98 73/167/98 42/127/98
f 55/95/99 57/97/99 37/128/99
f 54/30/100 60/32/100 61/130/100
f 53/1/101 55/26/101 9/131/101
f 5/133/102 54/30/102 53/1/102
f 46/134/103 58/168/103 70/135/103
f 60/32/104 56/138/104 15/136/104
f 60/32/105 59/31/105 16/137/105
f 68/139/106 58/168/106 46/134/106
f 75/140/107 74/169/107 44/141/107
f 72/101/108 73/162/108 68/139/108
f 70/135/109 74/169/109 75/140/109
f 20/28/110 14/56/110 15/143/110
